# xmcd
#
# Track frame offsets: 
#        150
#        13038
#        26946
#        41491
#        56057
#        67923
#        82933
#        99443
#        113058
#        124782
#        138038
#        160313
#        170412
#        184403
#        199834
#        212813
#        225877
#        236965
#
# Disc length: 3344 seconds
#
# Revision: 1
# Processed by: cddbd v1.5.1PL0 Copyright (c) Steve Scherf et al.
# Submitted via: ExactAudioCopy v0.95a5
#
DISCID=f10d0e12
DTITLE=Glenn Miller - In The Mood - CD2
DYEAR=2001
DGENRE=Jazz
TTITLE0=Little Brown Jug
TTITLE1=The Little Man Who Wasn't There
TTITLE2=Jeep Jockey Jump
TTITLE3=The Chestnut Tree
TTITLE4=Sun Valley Jump
TTITLE5=American Patrol
TTITLE6=I Dreamt I Dwelt In Harlem
TTITLE7=Glenn Island Line
TTITLE8=Baby Me
TTITLE9=Bugle Call Rag
TTITLE10=Anvil Chorus
TTITLE11=Danny Boy
TTITLE12=Elmers Tune
TTITLE13=Song Of The Volga Boatman
TTITLE14=Stairway To The Stars
TTITLE15=The Nearness Of You
TTITLE16=Yes, My Darling Daughter
TTITLE17=Careless
EXTD=YEAR: 2001
EXTT0=
EXTT1=
EXTT2=
EXTT3=
EXTT4=
EXTT5=
EXTT6=
EXTT7=
EXTT8=
EXTT9=
EXTT10=
EXTT11=
EXTT12=
EXTT13=
EXTT14=
EXTT15=
EXTT16=
EXTT17=
PLAYORDER=
